<svg height="512" viewBox="0 0 512 512" width="512" xmlns="http://www.w3.org/2000/svg"><g id="filled_outline" data-name="filled outline"><path d="m46 48h420a22 22 0 0 1 22 22v250a0 0 0 0 1 0 0h-464a0 0 0 0 1 0 0v-250a22 22 0 0 1 22-22z" fill="#0bafea"/><path d="m24 320h464a0 0 0 0 1 0 0v26a22 22 0 0 1 -22 22h-420a22 22 0 0 1 -22-22v-26a0 0 0 0 1 0 0z" fill="#eaeae8"/><path d="m256 240-72-40v-80l72 40z" fill="#fbb540"/><path d="m328 200-72 40v-80l72-40z" fill="#d18d28"/><path d="m328 120-72-40-72 40 72 40z" fill="#ea9d2d"/><path d="m328 280h-144a8 8 0 0 1 0-16h144a8 8 0 0 1 0 16z" fill="#0276b4"/><path d="m208 256h24v32h-24z" fill="#ea9d2d"/><path d="m324.58 442.3a144.41 144.41 0 0 1 -20.58-74.3h-48a16 16 0 1 1 -16 16 16 16 0 0 1 16-16h-48a144.41 144.41 0 0 1 -20.58 74.3l-3.42 5.7h144z" fill="#cbcbcb"/><path d="m466 40h-420a30.034 30.034 0 0 0 -30 30v276a30.034 30.034 0 0 0 30 30h153.75a136.457 136.457 0 0 1 -19.189 62.184l-3.421 5.7a8 8 0 0 0 6.86 12.116h144a8 8 0 0 0 6.86-12.116l-3.421-5.7a136.457 136.457 0 0 1 -19.189-62.184h153.75a30.034 30.034 0 0 0 30-30v-276a30.034 30.034 0 0 0 -30-30zm-151.921 400h-116.158a152.449 152.449 0 0 0 17.869-64h17.586a24 24 0 1 0 45.248 0h17.586a152.449 152.449 0 0 0 17.869 64zm-66.079-56a8 8 0 1 1 8 8 8.009 8.009 0 0 1 -8-8zm232-38a14.015 14.015 0 0 1 -14 14h-420a14.015 14.015 0 0 1 -14-14v-18h448zm0-34h-448v-242a14.015 14.015 0 0 1 14-14h420a14.015 14.015 0 0 1 14 14z"/><path d="m328 264h-88v-8a8 8 0 0 0 -8-8h-24a8 8 0 0 0 -8 8v8h-16a8 8 0 0 0 0 16h16v8a8 8 0 0 0 8 8h24a8 8 0 0 0 8-8v-8h88a8 8 0 0 0 0-16zm-104 16h-8v-16h8z"/><path d="m331.888 113.011-.047-.027-.042-.022-71.914-39.955a8 8 0 0 0 -7.77 0l-72 40c-.025.014-.041.031-.065.045s-.072.033-.107.053a8 8 0 0 0 -3.943 6.895v80a8 8 0 0 0 4.115 6.993l72 40a7.934 7.934 0 0 0 7.65.048.749.749 0 0 0 .12-.048l72-40a8 8 0 0 0 4.115-6.993v-80a7.994 7.994 0 0 0 -4.112-6.989zm-83.888 113.389-56-31.111v-61.689l56 31.111zm8-75.556-55.527-30.844 55.527-30.849 55.527 30.849zm64 44.445-56 31.111v-61.7l56-31.1z"/></g></svg>