<svg id="Capa_1" enable-background="new 0 0 507.64 507.64" height="512" viewBox="0 0 507.64 507.64" width="512" xmlns="http://www.w3.org/2000/svg"><g><g><path d="m461.965 239.657h-61.798c-4.418 0-8-3.582-8-8v-32.913c0-4.418 3.582-8 8-8h61.798c4.418 0 8 3.582 8 8v32.913c0 4.418-3.582 8-8 8z" fill="#5d5360"/><path d="m428.82 148.168h29.146c6.627 0 12-5.373 12-12v-116.663c0-6.627-5.373-12-12-12h-340.554c-4.317 0-8.302 2.319-10.434 6.073l-67.737 119.235c-1.027 1.807-1.566 3.85-1.566 5.928v41.016c0 1.589.94 3.027 2.395 3.664l29.528 12.931c1.455.637 2.395 2.075 2.395 3.664v94.223c0 2.209-1.791 4-4 4h-22.319c-4.418 0-8 3.582-8 8v181.897c0 6.627 5.373 12 12 12h408.291c6.627 0 12-5.373 12-12v-116.664c0-6.627-5.373-12-12-12h-29.145c-6.627 0-12-5.373-12-12v-187.304c0-6.628 5.372-12 12-12z" fill="#7a6d79"/><path d="m142.409 7.5c-4.31 0-8.3 2.32-10.43 6.08l-67.74 119.23c-1.02 1.81-1.56 3.85-1.56 5.93v41.02c0 1.59.94 3.02 2.39 3.66l29.53 12.93c1.45.64 2.39 2.08 2.39 3.67v94.22c0 2.21-1.79 4-4 4h-22.31c-4.42 0-8 3.58-8 8v181.9c0 6.62 5.37 12 12 12h-25c-6.63 0-12-5.38-12-12v-181.9c0-4.42 3.58-8 8-8h22.31c2.21 0 4-1.79 4-4v-94.22c0-1.59-.94-3.03-2.39-3.67l-29.53-12.93c-1.45-.64-2.39-2.07-2.39-3.66v-41.02c0-2.08.54-4.12 1.56-5.93l67.74-119.23c2.13-3.76 6.12-6.08 10.43-6.08z" fill="#685e68"/><g fill="#ffe177"><path d="m330.776 121.393h-27.478c-2.209 0-4-1.791-4-4v-71.826c0-2.209 1.791-4 4-4h27.478c2.209 0 4 1.791 4 4v71.826c0 2.209-1.791 4-4 4z"/><path d="m260.298 121.393h-27.478c-2.209 0-4-1.791-4-4v-71.826c0-2.209 1.791-4 4-4h27.478c2.209 0 4 1.791 4 4v71.826c0 2.209-1.791 4-4 4z"/><path d="m401.255 121.393h-27.478c-2.209 0-4-1.791-4-4v-71.826c0-2.209 1.791-4 4-4h27.478c2.209 0 4 1.791 4 4v71.826c0 2.209-1.791 4-4 4z"/><path d="m189.82 121.393h-27.478c-2.209 0-4-1.791-4-4v-71.826c0-2.209 1.791-4 4-4h27.478c2.209 0 4 1.791 4 4v71.826c0 2.209-1.791 4-4 4z"/></g><path d="m375.12 500.135v-114.26c0-6.63-5.37-12-12-12h-218.6c-6.63 0-12 5.37-12 12v114.26z" fill="#5d5360"/><path d="m353.707 171.677h-218.6c-6.627 0-12 5.373-12 12v127.368c0 6.627 5.373 12 12 12h218.6c6.627 0 12-5.373 12-12v-127.368c0-6.628-5.373-12-12-12z" fill="#5d5360"/><g fill="#4b3f4e"><path d="m169.519 373.87c-6.63 0-12 5.37-12 12v114.26h-25v-114.26c0-6.63 5.37-12 12-12z"/><path d="m160.109 323.05h-25c-6.63 0-12-5.38-12-12v-127.37c0-6.63 5.37-12 12-12h25c-6.63 0-12 5.37-12 12v127.37c0 6.62 5.37 12 12 12z"/></g></g><g><path d="m330.776 127.893c6.341 0 11.5-5.159 11.5-11.5v-71.826c0-6.341-5.159-11.5-11.5-11.5h-27.479c-6.341 0-11.5 5.159-11.5 11.5v71.826c0 6.341 5.159 11.5 11.5 11.5zm-23.978-79.826h20.479v64.826h-20.479z"/><path d="m260.298 127.893c6.341 0 11.5-5.159 11.5-11.5v-71.826c0-6.341-5.159-11.5-11.5-11.5h-27.478c-6.341 0-11.5 5.159-11.5 11.5v71.826c0 6.341 5.159 11.5 11.5 11.5zm-23.978-79.826h20.478v64.826h-20.478z"/><path d="m401.254 127.893c6.341 0 11.5-5.159 11.5-11.5v-71.826c0-6.341-5.159-11.5-11.5-11.5h-27.478c-6.341 0-11.5 5.159-11.5 11.5v71.826c0 6.341 5.159 11.5 11.5 11.5zm-23.978-79.826h20.478v64.826h-20.478z"/><path d="m189.82 127.893c6.341 0 11.5-5.159 11.5-11.5v-71.826c0-6.341-5.159-11.5-11.5-11.5h-27.478c-6.341 0-11.5 5.159-11.5 11.5v71.826c0 6.341 5.159 11.5 11.5 11.5zm-23.978-79.826h20.478v64.826h-20.478z"/><path d="m317.488 408.505h-127.337c-4.142 0-7.5 3.358-7.5 7.5s3.358 7.5 7.5 7.5h127.337c4.142 0 7.5-3.358 7.5-7.5s-3.358-7.5-7.5-7.5z"/><path d="m317.488 450.505h-127.337c-4.142 0-7.5 3.358-7.5 7.5s3.358 7.5 7.5 7.5h127.337c4.142 0 7.5-3.358 7.5-7.5s-3.358-7.5-7.5-7.5z"/><path d="m115.606 183.677v127.368c0 10.752 8.748 19.5 19.5 19.5h218.6c10.752 0 19.5-8.748 19.5-19.5v-127.368c0-10.752-8.748-19.5-19.5-19.5h-218.6c-10.752 0-19.5 8.747-19.5 19.5zm242.601 0v127.368c0 2.481-2.019 4.5-4.5 4.5h-218.6c-2.481 0-4.5-2.019-4.5-4.5v-127.368c0-2.481 2.019-4.5 4.5-4.5h218.6c2.481 0 4.5 2.018 4.5 4.5z"/><path d="m457.97 0h-340.56c-7.005 0-13.502 3.787-16.951 9.875l-67.738 119.226c-1.669 2.933-2.551 6.266-2.551 9.639v41.02c0 4.562 2.704 8.694 6.892 10.53l27.428 12.01v88.44h-18.82c-8.547 0-15.5 6.953-15.5 15.5v118.91c0 4.142 3.358 7.5 7.5 7.5s7.5-3.358 7.5-7.5v-118.91c0-.271.229-.5.5-.5h22.32c6.341 0 11.5-5.159 11.5-11.5v-94.22c0-4.558-2.693-8.692-6.882-10.541l-27.438-12.014v-38.725c0-.776.204-1.544.591-2.225l67.745-119.239c.796-1.404 2.292-2.276 3.904-2.276h340.56c2.481 0 4.5 2.019 4.5 4.5v22.56c0 4.142 3.358 7.5 7.5 7.5s7.5-3.358 7.5-7.5v-22.56c0-10.752-8.748-19.5-19.5-19.5z"/><path d="m469.97 69.56c-4.142 0-7.5 3.358-7.5 7.5v59.11c0 2.481-2.019 4.5-4.5 4.5h-29.15c-10.752 0-19.5 8.748-19.5 19.5v187.3c0 10.752 8.748 19.5 19.5 19.5h29.15c2.481 0 4.5 2.019 4.5 4.5v116.67c0 2.481-2.019 4.5-4.5 4.5h-75.35v-106.765c0-10.752-8.748-19.5-19.5-19.5h-218.6c-10.752 0-19.5 8.748-19.5 19.5v106.765h-75.35c-2.481 0-4.5-2.019-4.5-4.5v-27.99c0-4.142-3.358-7.5-7.5-7.5s-7.5 3.358-7.5 7.5v27.99c0 10.752 8.748 19.5 19.5 19.5h408.3c10.752 0 19.5-8.748 19.5-19.5v-116.67c0-10.752-8.748-19.5-19.5-19.5h-29.15c-2.481 0-4.5-2.019-4.5-4.5v-100.31h37.65c8.547 0 15.5-6.953 15.5-15.5v-32.92c0-8.547-6.953-15.5-15.5-15.5h-37.65v-23.07c0-2.481 2.019-4.5 4.5-4.5h29.15c10.752 0 19.5-8.748 19.5-19.5v-59.11c0-4.142-3.358-7.5-7.5-7.5zm-329.95 316.315c0-2.481 2.019-4.5 4.5-4.5h218.6c2.481 0 4.5 2.019 4.5 4.5v106.765h-227.6zm321.95-187.635c.266 0 .5.233.5.5v32.92c0 .271-.229.5-.5.5h-37.65v-33.92z"/></g></g></svg>