<svg id="Layer_1" enable-background="new 0 0 509.873 509.873" height="512" viewBox="0 0 509.873 509.873" width="512" xmlns="http://www.w3.org/2000/svg"><g><path d="m209.937 59.78v90l22.5 10 22.5-10 10-45-10-45-22.5-10z" fill="#ebf1f9"/><path d="m299.937 59.78-22.5-10-22.5 10v90l22.5 10 22.5-10z" fill="#ced8e8"/><path d="m134.937 149.78v195l66.333 10 53.667-10 10-97.5-10-97.5z" fill="#6058ad"/><path d="m374.937 149.78h-120v195l60 10 60-10z" fill="#453f81"/><path d="m134.937 344.78v15c0 66.168 53.832 120 120 120l10-75-10-60z" fill="#ea1c81"/><path d="m254.937 344.78v135c66.168 0 120-53.832 120-120v-15z" fill="#bc00a2"/><path d="m39.478 480.093c-52.637-52.637-52.637-138.282 0-190.919l21.213 21.213c-40.939 40.939-40.939 107.554 0 148.493z" fill="#76e2f8"/><path d="m81.903 437.666c-14.166-14.166-21.967-33-21.967-53.033s7.801-38.867 21.967-53.032l21.213 21.213c-8.499 8.499-13.18 19.8-13.18 31.819 0 12.021 4.681 23.32 13.18 31.82z" fill="#76e2f8"/><path d="m470.396 480.093-21.213-21.213c19.832-19.832 30.754-46.2 30.754-74.246 0-28.047-10.922-54.415-30.754-74.247l21.213-21.213c52.636 52.636 52.636 138.282 0 190.919z" fill="#4bb9ec"/><path d="m427.97 437.666-21.213-21.213c17.545-17.546 17.545-46.095 0-63.64l21.213-21.213c29.242 29.242 29.242 76.823 0 106.066z" fill="#4bb9ec"/><path d="m194.937 209.78v90h60l10-45-10-45z" fill="#ebf1f9"/><path d="m254.937 209.78h60v90h-60z" fill="#ced8e8"/><path d="m239.937 389.78v30h15l10-12.333-10-17.667z" fill="#ebf1f9"/><path d="m254.937 389.78h15v30h-15z" fill="#ced8e8"/><path d="m164.937 29.78v30h90l15-15-15-15z" fill="#6058ad"/><path d="m254.937 29.78h90v30h-90z" fill="#453f81"/></g></svg>