<svg height="512" viewBox="0 0 60 61" width="512" xmlns="http://www.w3.org/2000/svg"><g id="Page-1" fill="none" fill-rule="evenodd"><g id="037---RAM" fill-rule="nonzero"><g id="Icons" transform="translate(1 1)"><path id="Shape" d="m37.9 40.91-2.74 2.73c-.1792913.1823244-.4242901.285012-.68.285012s-.5007087-.1026876-.68-.285012l-2.74-2.73 3.42-8.41z" fill="#fec108"/><path id="Shape" d="m41.32 37.49-3.42 3.42-3.42-3.42 3.42-7.49z" fill="#ffdc00"/><path id="Shape" d="m44.74 34.07-3.42 3.42-3.42-3.42 3.017-7.153z" fill="#fec108"/><path id="Shape" d="m48.16 30.65-3.42 3.42-3.42-3.42 2.93-6.499z" fill="#ffdc00"/><path id="Shape" d="m51.58 27.23-3.42 3.42-3.42-3.42 2.552-7.105z" fill="#fec108"/><path id="Shape" d="m55 23.81-3.42 3.42-3.42-3.42 3.42-6.352z" fill="#ffdc00"/><path id="Shape" d="m57.73 21.07-2.73 2.74-3.42-3.42 1.7163-5.1238 4.4337 4.4438c.1823244.1792913.285012.4242901.285012.68s-.1026876.5007087-.285012.68z" fill="#fec108"/><path id="Shape" d="m22.85 55.95-2.73 2.74c-.1812756.1824209-.4278265.2850007-.685.2850007s-.5037244-.1025798-.685-.2850007l-2.73-2.73 4.5633-8.835z" fill="#ffdc00"/><path id="Shape" d="m29.01 49.8-2.74 2.73-8.145-2.655 8.145-4.175 2.74 2.73c.3700002.3817213.3700002.9882787 0 1.37z" fill="#ffdc00"/><path id="Shape" d="m55.68 16.29-.68.68-3.42 3.42-3.42 3.42-6.84 6.84-3.42 3.42-3.42 3.42-3.42 3.42-4.79 4.79-3.41 3.42-6.84 6.84-.69.68c-.3817213.3700002-.9882787.3700002-1.37 0l-7.61-7.61c-.31599741-.3305905-.36553054-.8341773-.12-1.22l.09-.18c.53498133-1.1087467.30590939-2.4349526-.57-3.3-.04746894-.0493069-.09754042-.0960403-.15-.14-.92470904-.8100484-2.26066328-.9464521-3.33-.34-.38582271.2455305-.88940955.1959974-1.22-.12l-.77-.77c-.37000024-.3817213-.37000024-.9882787 0-1.37l.04-.04 40.32-40.31c.3032376-.30848734.7777791-.37038406 1.15-.15.0816893.03119346.1539989.08284316.21.15l.78.77c.3064016.33493309.3552725.8317875.12 1.22-.2190466.38214504-.3457494.81019535-.37 1.25-.0676249 1.06383318.4542431 2.07891043 1.3587789 2.64293971.9045359.56402929 2.0456966.58594451 2.9712211.05706029.3858683-.23730365.8833472-.18385551 1.21.13l7.61 7.61c.1824209.1812756.2850007.4278265.2850007.685s-.1025798.5037244-.2850007.685z" fill="#549414"/><path id="Shape" d="m54.68 13.92-14.36 14.36-3.42 3.42-3.42 3.42-8.21 8.21-3.41 3.42-6.84 6.84-.69.68c-.3817213.3700002-.9882787.3700002-1.37 0l-6.64-6.64c.53498133-1.1087467.30590939-2.4349526-.57-3.3-.04746894-.0493069-.09754042-.0960403-.15-.14.05-.8-.23.42-.85-.19-.94-.95-2.37-.63-3.48 0-.3.17-.65-2.32-.95-2.45l40.32-40.31c.3032376-.30848734.7777791-.37038406 1.15-.15.5348-1.1339 1.884 4.5539.58 3.25.0508164.04946718.104225.09619971.16.14-.0676249 1.06383318.4542431 2.07891043 1.3587789 2.64293971.9045359.56402929 2.0456966.58594451 2.9712211.05706029.3858683-.23730365.8833472-.18385551 1.21.13z" fill="#60a917"/><path id="Rectangle-path" d="m20.437 50.124h4.837v4.823h-4.837z" fill="#fec108" transform="matrix(.707 -.707 .707 .707 -30.454 31.548)"/><path id="Shape" d="m16.02 55.96-.01-.01" fill="#f0c419"/><path id="Shape" d="m19.44 52.54-.01-.01" fill="#f0c419"/><path id="Shape" d="m22.86 49.12-.01-.01" fill="#f0c419"/><g fill="#37474f"><path id="Shape" d="m21.46 43.67-4.74 4.74c-.1868315.1872527-.4404824.2924856-.705.2924856s-.5181685-.1052329-.705-.2924856l-6.8-6.8c-.37791633-.3940315-.37791633-1.0159685 0-1.41l4.74-4.74c.3930079-.3899779 1.0269921-.3899779 1.42 0l6.79 6.79c.3899779.3930079.3899779 1.0269921 0 1.42z"/><path id="Shape" d="m30.35 34.78-4.74 4.74c-.1868315.1872527-.4404824.2924856-.705.2924856s-.5181685-.1052329-.705-.2924856l-6.8-6.8c-.1516039-.1460777-.2471528-.3407144-.27-.55-.0590727-.3137568.042194-.6363098.27-.86l4.75-4.74c.1868315-.1872527.4404824-.2924856.705-.2924856s.5181685.1052329.705.2924856l6.79 6.79c.3900324.3929855.3900324 1.0270145 0 1.42z"/><path id="Shape" d="m39.24 25.88-4.74 4.75c-.1868315.1872527-.4404824.2924856-.705.2924856s-.5181685-.1052329-.705-.2924856l-6.79-6.8c-.1542661-.1453338-.2532429-.3397525-.28-.55-.0571733-.3155089.0480292-.638631.28-.86l4.74-4.74c.1868315-.1872527.4404824-.2924856.705-.2924856s.5181685.1052329.705.2924856l6.79 6.79c.1872527.1868315.2924856.4404824.2924856.705s-.1052329.5181685-.2924856.705z"/><path id="Shape" d="m48.14 16.99-4.75 4.74c-.1868315.1872527-.4404824.2924856-.705.2924856s-.5181685-.1052329-.705-.2924856l-6.79-6.79c-.1420294-.1489117-.2360883-.3370294-.27-.54-.0625475-.3169799.0389809-.644127.27-.87l4.74-4.74c.1844479-.19167694.4389905-.29998894.705-.29998894s.5205521.108312.705.29998894l5.64 5.64 1.16 1.15c.1872527.1868315.2924856.4404824.2924856.705s-.1052329.5181685-.2924856.705z"/></g><path id="Shape" d="m20.3 41.09c.0625887.3200156-.0387037.6501536-.27.88l-4.74 4.74c-.1868315.1872527-.4404824.2924856-.705.2924856s-.5181685-.1052329-.705-.2924856l-5.64-5.64c-.06105939-.3168992.04025324-.643351.27-.87l4.74-4.74c.3930079-.3899779 1.0269921-.3899779 1.42 0z" fill="#607d8b"/><path id="Shape" d="m29.19 32.2c.0625475.3169799-.0389809.644127-.27.87l-4.74 4.75c-.1868315.1872527-.4404824.2924856-.705.2924856s-.5181685-.1052329-.705-.2924856l-5.64-5.65c-.0590727-.3137568.042194-.6363098.27-.86l4.75-4.74c.1868315-.1872527.4404824-.2924856.705-.2924856s.5181685.1052329.705.2924856z" fill="#607d8b"/><path id="Shape" d="m38.09 23.32c.0609857.3138671-.0405612.6373127-.27.86l-4.75 4.74c-.1868315.1872527-.4404824.2924856-.705.2924856s-.5181685-.1052329-.705-.2924856l-5.64-5.64c-.0571733-.3155089.0480292-.638631.28-.86l4.74-4.74c.1868315-.1872527.4404824-.2924856.705-.2924856s.5181685.1052329.705.2924856z" fill="#607d8b"/><path id="Shape" d="m46.71 15.29-4.74 4.74c-.3930079.3899779-1.0269921.3899779-1.42 0l-5.63-5.63c-.0625475-.3169799.0389809-.644127.27-.87l4.74-4.74c.1844479-.19167694.4389905-.29998894.705-.29998894s.5205521.108312.705.29998894l5.64 5.64c.0590727.3137568-.042194.6363098-.27.86z" fill="#607d8b"/></g><g id="Layer_10" fill="#000"><path id="Shape" d="m15.6455 58.92c-.5225144.0020781-1.0240806-.205269-1.3926-.5757l-7.61-7.6113c-.63501308-.6460083-.75233683-1.6398869-.2852-2.416.42121171-.7442075.29434609-1.6779755-.31015421-2.2828255-.60450031-.6048501-1.53819476-.7322557-2.28264579-.3114745-.77649712.4683058-1.77162213.3509684-2.4179-.2851l-.7715-.771c-.7663652-.7689157-.76681226-2.0127336-.001-2.7822l40.3532-40.3532c.7689076-.76686898 2.0133924-.76686898 2.7823 0l.7724.7725c.6352621.64687058.7517949 1.64184394.2832 2.418-.4194718.74445682-.291505 1.67720497.3129633 2.28118399s1.5373198.73119054 2.2814367.31111601c.7767885-.46695415 1.7710244-.34972157 2.4179.2851l7.61 7.6113c.7673106.7690817.7668632 2.0142699-.001 2.7828l-40.3508 40.352c-.3679645.3699285-.8688335.5769611-1.3906.5748zm-10.9199-15.4342c1.02620102-.0001433 2.010312.4079212 2.7353 1.1342 1.23944414 1.2426418 1.49900854 3.1589124.6348 4.6865l7.5723 7.6246 40.3066-40.353-7.6113-7.5654c-1.5184331.89885352-3.4530809.65360545-4.6992-.5957-1.2389172-1.2424584-1.4988311-3.15792333-.6358-4.6856l-.7324-.7861-40.3066 40.353.7724.7256c.59453569-.3522313 1.27285763-.5380885 1.9639-.5381z"/><path id="Shape" d="m20.4326 60.9722c-.5221858.0018999-1.0233753-.2054405-1.3916-.5757l-2.7353-2.7354c-.2599566-.2510745-.3642126-.6228779-.2726972-.9725073.0915155-.3496295.3645604-.6226744.7141899-.7141899.3496294-.0915154.7214328.0127406.9725073.2726972l2.7364 2.7358 8.8447-8.8911-2.7354-2.69c-.380397-.3921753-.3756228-1.01706.0107219-1.4033774.3863446-.3863173 1.0112297-.3910473 1.4033781-.0106226l2.7353 2.7353c.766869.7689076.766869 2.0133924 0 2.7823l-8.8916 8.8916c-.3678984.3700753-.8687756.5772553-1.3906.5752z"/><path id="Shape" d="m35.48 45.9253c-.5221858.0018999-1.0233753-.2054405-1.3916-.5757l-2.7354-2.7353c-.3777934-.3924746-.3719371-1.015136.0131714-1.4004352.3851086-.3852993 1.007767-.3914639 1.4004286-.0138648l2.7363 2.7358 22.5235-22.57-2.7354-2.6895c-.3820936-.3919029-.3781252-1.0181666.0089041-1.4051959s1.013293-.3909977 1.4051959-.0089041l2.7349 2.7358c.7672831.7690769.7668804 2.0142195-.0009 2.7828l-22.5691 22.5692c-.3677355.3699636-.8683689.5771682-1.39.5753z"/><path id="Shape" d="m23.8525 57.9541c-.2652627.0002851-.519701-.105161-.707-.293l-3.42-3.4194c-.3804247-.3921484-.3756947-1.0170335.0106226-1.4033781.3863174-.3863447 1.0112021-.3911189 1.4033774-.0107219l3.42 3.42c.2859208.2860071.3714284.7160737.2166588 1.0897007-.1547695.3736271-.5193447.6172534-.9237588.6172993z"/><path id="Shape" d="m27.2725 54.5347c-.2652974.0003117-.5197765-.1051364-.7071-.293l-3.42-3.42c-.3904653-.390631-.3903309-1.0238347.0003-1.4143.390631-.3904653 1.0238347-.390331 1.4143.0003l3.42 3.42c.2859794.2859849.3715389.7160737.2167859 1.0897354s-.5193461.6173187-.9237859.6173646z"/><path id="Shape" d="m38.8994 42.9072c-.2652527.0003337-.5196971-.105079-.707-.2929l-3.42-3.4195c-.3789722-.3923789-.3735524-1.0160848.0121814-1.4018186s1.0094397-.3911536 1.4018186-.0121814l3.42 3.4194c.2859079.2859943.3714219.7160366.216678 1.0896546-.1547439.3736179-.5192821.6172591-.923678.6173454z"/><path id="Shape" d="m42.3193 39.4878c-.2652627.0002851-.519701-.105161-.707-.293l-3.42-3.42c-.3804247-.3921484-.3756947-1.0170335.0106226-1.4033781.3863174-.3863447 1.0112021-.3911189 1.4033774-.0107219l3.42 3.42c.2859208.2860071.3714284.7160737.2166588 1.0897007-.1547695.3736271-.5193447.6172534-.9237588.6172993z"/><path id="Shape" d="m45.7393 36.0679c-.2652974.0003117-.5197765-.1051364-.7071-.293l-3.42-3.4194c-.3820936-.3919029-.3781252-1.0181666.0089041-1.4051959s1.013293-.3909977 1.4051959-.0089041l3.42 3.4194c.2859794.2859849.3715389.7160737.2167859 1.0897354s-.5193461.6173187-.9237859.6173646z"/><path id="Shape" d="m49.1582 32.6484c-.2652549.0003448-.5197034-.1050696-.707-.2929l-3.419-3.42c-.2590307-.2512868-.3625694-.6226481-.2709202-.9717074s.3642662-.621657.713332-.7132815c.3490657-.0916245.7204198.0119404.9716882.2709889l3.4189 3.42c.2859079.2859943.3714219.7160366.216678 1.0896546-.1547439.3736179-.5192821.6172591-.923678.6173454z"/><path id="Shape" d="m52.5781 29.2285c-.2652737.0003404-.5197324-.1051141-.707-.293l-3.42-3.42c-.2599566-.2510745-.3642126-.6228779-.2726972-.9725073.0915155-.3496295.3645604-.6226744.7141899-.7141899.3496294-.0915154.7214328.0127406.9725073.2726972l3.42 3.42c.2859208.2860071.3714284.7160737.2166588 1.0897007-.1547695.3736271-.5193447.6172534-.9237588.6172993z"/><path id="Shape" d="m55.998 25.8086c-.2652627.0002851-.519701-.105161-.707-.293l-3.42-3.4194c-.3820936-.3919029-.3781252-1.0181666.0089041-1.4051959s1.013293-.3909977 1.4051959-.0089041l3.42 3.42c.2859208.2860071.3714284.7160737.2166588 1.0897007-.1547695.3736271-.5193447.6172534-.9237588.6172993z"/><path id="Shape" d="m17.0127 50.7c-.5304359.0009613-1.0393696-.2095799-1.4141-.585l-6.7929-6.7932c-.78028121-.7814338-.78028121-2.0471662 0-2.8286l4.7412-4.7412c.7812395-.7802789 2.0468605-.7802789 2.8281 0l6.793 6.7929c.7802261.7814566.7802261 2.0471434 0 2.8286l-4.7412 4.7412c-.3746811.3755302-.8836209.5861818-1.4141.5853zm-2.0518-13.534-4.7409 4.7412 6.793 6.7935 4.7422-4.7422z"/><path id="Shape" d="m25.9043 41.8081c-.5302244.0008839-1.0390116-.2092369-1.4141-.584l-6.7929-6.7941c-.7802789-.7812395-.7802789-2.0468605 0-2.8281l4.7412-4.7413c.7812623-.7802238 2.0468377-.7802238 2.8281 0l6.793 6.793c.3751443.3749684.5859129.8836402.5859129 1.41405s-.2107686 1.0390816-.5859129 1.41405l-4.7412 4.7417c-.3748736.3751695-.8837401.5855749-1.4141.5847zm-2.0518-13.5332-4.7412 4.7412 6.793 6.7935 4.7412-4.7417v-.0005l.001-.001z"/><path id="Shape" d="m34.7959 32.917c-.5304359.0009613-1.0393696-.2095799-1.4141-.585l-6.7939-6.7929c-.7780933-.7818258-.7785402-2.0453241-.001-2.8277l4.7431-4.7422c.3734499-.3762183.8820026-.5872239 1.4121-.5859h.0019c.5307085-.0014456 1.0399276.2095377 1.4141.5859l6.793 6.7935c.3751443.3749684.5859129.8836402.5859129 1.41405s-.2107686 1.0390816-.5859129 1.41405l-4.7411 4.7412c-.3747304.3754201-.8836641.5859613-1.4141.585zm-2.0518-13.5337-4.7421 4.7412 6.7939 6.7935 4.7422-4.7422z"/><path id="Shape" d="m43.6865 24.0254c-.5301614.0007141-1.0388551-.2093829-1.414-.584l-6.7925-6.7939c-.7802904-.7812738-.7802904-2.0469262 0-2.8282l4.7412-4.7412c.3741724-.37636233.8833915-.58734561 1.4141-.5859h.0019c.5305731-.00124892 1.0395271.21013394 1.4131.5869l6.793 6.792c.3751443.3749684.5859129.8836402.5859129 1.41405s-.2107686 1.0390816-.5859129 1.41405l-4.7412 4.7417c-.375311.3754088-.8847624.5857608-1.4156.5845zm-2.0517-13.5332-4.7412 4.7412 6.7929 6.7935 4.7422-4.7417.001-.001z"/></g></g></g></svg>