<svg id="Capa_1" enable-background="new 0 0 512 512" height="512" viewBox="0 0 512 512" width="512" xmlns="http://www.w3.org/2000/svg"><g><g><g><path d="m69.5 113.468 2.5 55.367c0 5.523 4.477 10 10 10l27.936 2.165v-67.532z" fill="#f9f8f9"/><path d="m109.94 169v12h-30.44c-5.52 0-10-4.48-10-10v-57.53h12.5v49.53c0 3.31 2.69 6 6 6z" fill="#efedef"/><path d="m450 143v-50.82c0-9.39-3.773-18.387-10.472-24.968l-50.571-49.68c-6.545-6.429-15.353-10.032-24.528-10.032h-282.429c-11.046 0-19 9.954-19 21v93.5c0 2.761 2.239 5 5 5l14 1h13.62c2.761 0 5 2.239 5 5v100c0 2.761-2.239 5-5 5h-13.62l-13.376 1.5c-2.761 0-5 2.239-5 5l-.578 238.757c0 11.046 7.908 21.243 18.954 21.243h61.5c5.523 0 10-4.477 10-10v-22c0-3.866 3.134-7 7-7h191c1.684 0 3.229.595 4.437 1.585 1.565 1.284 3.999 3.311 3.999 5.493l-.532 20.826c0 5.523 4.477 10 10 10l9.096 1.096h51.5c11.046 0 20-8.954 20-20v-301.5c0-2.761-2.239-5-5-5h-20c-2.761 0-5-2.239-5-5v-20c0-2.761 2.239-5 5-5h20c2.761 0 5-2.239 5-5z" fill="#617881"/><path d="m378.5 472.5v32h-10c-5.52 0-10-4.48-10-10v-22c0-3.87-3.13-7-7-7h20c3.87 0 7 3.13 7 7z" fill="#495959"/><path d="m391.085 344.043v50c0 1.369-.138 2.706-.4 3.997-1.852 9.13-13.009 13.217-22.686 13.217l-213.829-.269c-11.046 0-20-8.954-20-20l-.201-46.945 116.669-3z" fill="#ee6161"/><path d="m82 238v266.5c-11.05 0-20-8.95-20-20v-241.5c0-2.76 2.24-5 5-5z" fill="#495959"/><path d="m82 7.5v120.5h-15c-2.76 0-5-2.24-5-5v-95.5c0-11.05 8.95-20 20-20z" fill="#495959"/><path d="m133.969 344.043-.823-192.107c0-9.665 4.794-20.622 13.908-22.487 1.302-.266 2.65-.406 4.031-.406h220c11.046 0 20 8.954 20 20v195z" fill="#f9f8f9"/><path d="m346.5 214h-144c-5.523 0-10-4.477-10-10v-28c0-5.523 4.477-10 10-10l4.996-1h140.004c5.523 0 10 4.477 10 10v24l-1 5c0 5.523-4.477 10-10 10z" fill="#fddf80"/><path d="m357.496 199v6c0 5.52-4.47 10-10 10h-146c-5.523 0-10-4.477-10-10v-30c0-5.523 4.477-10 10-10h6v30c0 2.209 1.791 4 4 4z" fill="#f9d070"/><circle cx="342.5" cy="259.5" fill="#efedef" r="15"/><path d="m147.086 344.043v49.997c0 2.21 1.79 4 4 4h239.6c-1.86 9.13-9.93 16-19.6 16h-220c-11.05 0-20-8.95-20-20v-49.997l8-3z" fill="#e94444"/><path d="m131.086 344.043v-195.003c0-9.67 6.87-17.75 16-19.6v214.603z" fill="#efedef"/></g><path d="m154.51 43.057-22.871 41.784c-3.5 6.394 1.127 14.201 8.416 14.201h45.741c7.289 0 11.916-7.807 8.416-14.201l-22.871-41.784c-3.639-6.65-13.191-6.65-16.831 0z" fill="#495959"/></g><g><path d="m445 155.5c6.893 0 12.5-5.607 12.5-12.5v-50.82c0-11.328-4.635-22.379-12.716-30.318l-50.571-49.68c-7.997-7.856-18.574-12.182-29.784-12.182h-143.876c-4.142 0-7.5 3.357-7.5 7.5s3.358 7.5 7.5 7.5h143.876c7.253 0 14.098 2.8 19.272 7.883l50.571 49.679c5.229 5.138 8.228 12.288 8.228 19.618v48.32h-17.5c-6.893 0-12.5 5.607-12.5 12.5v20c0 6.893 5.607 12.5 12.5 12.5h17.5v299c0 6.893-5.607 12.5-12.5 12.5h-61.5c-1.378 0-2.5-1.121-2.5-2.5v-19c0-9.649-7.851-17.5-17.5-17.5h-185c-9.649 0-17.5 7.851-17.5 17.5v19c0 1.379-1.122 2.5-2.5 2.5h-61.5c-6.893 0-12.5-5.607-12.5-12.5v-64.734c0-4.143-3.358-7.5-7.5-7.5s-7.5 3.357-7.5 7.5v64.734c0 15.164 12.336 27.5 27.5 27.5h61.5c9.649 0 17.5-7.851 17.5-17.5v-19c0-1.379 1.122-2.5 2.5-2.5h185c1.378 0 2.5 1.121 2.5 2.5v19c0 9.649 7.851 17.5 17.5 17.5h61.5c15.164 0 27.5-12.336 27.5-27.5v-301.5c0-6.893-5.607-12.5-12.5-12.5h-17.5v-15z"/><path d="m62 392.202c4.142 0 7.5-3.357 7.5-7.5v-139.202h26.12c6.893 0 12.5-5.607 12.5-12.5v-100c0-6.893-5.607-12.5-12.5-12.5h-26.12v-93c0-6.893 5.607-12.5 12.5-12.5h103.638c4.142 0 7.5-3.357 7.5-7.5s-3.358-7.5-7.5-7.5h-103.638c-15.164 0-27.5 12.337-27.5 27.5v95.5c0 5.115 3.091 9.516 7.5 11.449v36.551c0 9.649 7.851 17.5 17.5 17.5h13.62v42h-26.12c-6.893 0-12.5 5.607-12.5 12.5v141.702c0 4.143 3.358 7.5 7.5 7.5zm17.5-218.702c-1.378 0-2.5-1.121-2.5-2.5v-35.5h16.12v38z"/><path d="m391.085 219.563c4.142 0 7.5-3.357 7.5-7.5v-63.021c0-15.163-12.336-27.5-27.5-27.5h-220c-15.164 0-27.5 12.337-27.5 27.5v245c0 15.163 12.336 27.5 27.5 27.5h220c15.164 0 27.5-12.337 27.5-27.5v-146.914c0-4.143-3.358-7.5-7.5-7.5s-7.5 3.357-7.5 7.5v89.415h-245v-187.5c0-6.893 5.607-12.5 12.5-12.5h220c6.893 0 12.5 5.607 12.5 12.5v63.021c0 4.142 3.358 7.499 7.5 7.499zm-7.5 131.98v42.5c0 6.893-5.607 12.5-12.5 12.5h-220c-6.893 0-12.5-5.607-12.5-12.5v-42.5z"/><path d="m162.926 30.569c-6.249 0-11.995 3.405-14.995 8.888l-22.871 41.783c-2.928 5.351-2.82 11.677.29 16.924 3.109 5.247 8.607 8.379 14.706 8.379h45.741c6.099 0 11.596-3.132 14.706-8.379s3.218-11.573.29-16.924l-22.871-41.783c-3.001-5.482-8.747-8.888-14.996-8.888zm24.673 59.948c-.277.468-.815 1.026-1.802 1.026h-45.741c-.986 0-1.524-.559-1.802-1.026-.278-.469-.509-1.209-.036-2.075l22.871-41.782c0-.001 0-.001 0-.001.493-.9 1.271-1.089 1.837-1.089s1.345.188 1.838 1.09l22.871 41.782c.473.866.241 1.606-.036 2.075z"/><path d="m365 175c0-9.649-7.851-17.5-17.5-17.5h-146c-9.649 0-17.5 7.851-17.5 17.5v30c0 9.649 7.851 17.5 17.5 17.5h146c9.649 0 17.5-7.851 17.5-17.5zm-15 30c0 1.379-1.122 2.5-2.5 2.5h-146c-1.378 0-2.5-1.121-2.5-2.5v-30c0-1.379 1.122-2.5 2.5-2.5h146c1.378 0 2.5 1.121 2.5 2.5z"/><path d="m191.5 252h68c4.142 0 7.5-3.357 7.5-7.5s-3.358-7.5-7.5-7.5h-68c-4.142 0-7.5 3.357-7.5 7.5s3.358 7.5 7.5 7.5z"/><path d="m191.5 282h68c4.142 0 7.5-3.357 7.5-7.5s-3.358-7.5-7.5-7.5h-68c-4.142 0-7.5 3.357-7.5 7.5s3.358 7.5 7.5 7.5z"/><path d="m313.681 294c-4.142 0-7.5 3.357-7.5 7.5s3.358 7.5 7.5 7.5h43.819c4.142 0 7.5-3.357 7.5-7.5s-3.358-7.5-7.5-7.5z"/><path d="m191.5 309h87.011c4.142 0 7.5-3.357 7.5-7.5s-3.358-7.5-7.5-7.5h-87.011c-4.142 0-7.5 3.357-7.5 7.5s3.358 7.5 7.5 7.5z"/><path d="m342.5 237c-12.407 0-22.5 10.094-22.5 22.5s10.093 22.5 22.5 22.5 22.5-10.094 22.5-22.5-10.093-22.5-22.5-22.5zm0 30c-4.136 0-7.5-3.364-7.5-7.5s3.364-7.5 7.5-7.5 7.5 3.364 7.5 7.5-3.364 7.5-7.5 7.5z"/><path d="m166.5 386.543h105.829c4.142 0 7.5-3.357 7.5-7.5s-3.358-7.5-7.5-7.5h-105.829c-4.142 0-7.5 3.357-7.5 7.5s3.358 7.5 7.5 7.5z"/><path d="m153.585 165.5v79c0 4.143 3.358 7.5 7.5 7.5s7.5-3.357 7.5-7.5v-79c0-4.143-3.358-7.5-7.5-7.5s-7.5 3.357-7.5 7.5z"/></g></g></svg>