<svg id="Layer_1" enable-background="new 0 0 512 512" height="512" viewBox="0 0 512 512" width="512" xmlns="http://www.w3.org/2000/svg"><path d="m481.492 439.105-15.961-15.94-32.793 32.747c-1.348 1.345-3.147 2.087-5.066 2.087s-3.719-.742-5.068-2.087l-39.35-39.298c-.563-.561-1.287-.897-2.053-1.002v42c.766.104 1.49.441 2.053 1.002l39.35 39.298c1.35 1.345 3.149 2.087 5.068 2.087s3.719-.742 5.066-2.087l48.754-48.688c2.795-2.789 2.795-7.328 0-10.119z" fill="#a64b30"/><path d="m110.127 243.519h-61.715c-11 0-20 9-20 20v6.086c0 11 9 20 20 20h61.715z" fill="#bb5d4c"/><path d="m60 269.604v-6.086c0-11 9-20 20-20h-31.588c-11 0-20 9-20 20v6.086c0 11 9 20 20 20h31.588c-11 0-20-9-20-20z" fill="#a64b30"/><path d="m110.127 289.604h-41.078c-11 0-20 9-20 20v6.087c0 11 9 20 20 20h41.078z" fill="#bb5d4c"/><path d="m80.332 315.691v-6.087c0-11 9-20 20-20h-31.283c-11 0-20 9-20 20v6.087c0 11 9 20 20 20h31.283c-11 0-20-9-20-20z" fill="#a64b30"/><path d="m118.705 355.691v6.087c0 6.759-3.406 12.753-8.578 16.378v4.133c8.893 2.025 15.586 10.006 15.586 19.489v6.086c0 9.483-6.693 17.464-15.586 19.489v56.445c0 11.385 9.291 20.701 20.643 20.701h229.787c11.355 0 20.645-9.316 20.645-20.701v-26.185-104.081h-262.622c.078.71.125 1.429.125 2.159z" fill="#8c9ba7"/><path d="m481.492 439.105-38.691-38.639c-.869-.866-1.23-2.118-.963-3.314 3.979-17.709 1.713-36.421-6.383-52.688-4.906-9.86-10.117-18.513-18.455-25.497l-38.475-66.565c-.898-1.657-2.611-2.62-4.398-2.62-.617 0-1.244.115-1.848.355-6.113 2.434-17.041 8.17-21.541 19.236-4.205 10.347-1.893 22.929 6.881 37.405l23.582 38.722v112.113c.766.104 1.49.441 2.053 1.002l39.35 39.298c1.35 1.345 3.149 2.087 5.068 2.087s3.719-.742 5.066-2.087l48.754-48.688c2.795-2.79 2.795-7.329 0-10.12z" fill="#bb5d4c"/><path d="m141.926 483.799v-130.267h-23.346c.078.71.125 1.429.125 2.159v6.087c0 6.759-3.406 12.753-8.578 16.378v4.133c8.893 2.025 15.586 10.006 15.586 19.489v6.086c0 9.483-6.693 17.464-15.586 19.489v56.445c0 11.385 9.291 20.701 20.643 20.701h31.799c-11.352.001-20.643-9.315-20.643-20.7z" fill="#798b97"/><path d="m372.279 250.137c.604-.24 1.23-.355 1.848-.355 1.787 0 3.5.963 4.398 2.62l2.676 4.757v-228.96c0-11.382-9.289-20.699-20.645-20.699h-229.786c-11.352 0-20.643 9.317-20.643 20.699v311.114c4.613 3.233 7.818 8.352 8.455 14.219h262.619v-8.032l-23.582-38.722c-8.773-14.477-11.086-27.059-6.881-37.405 4.5-11.066 15.428-16.803 21.541-19.236z" fill="#c7eefd"/><path d="m220.693 328.59h-53.566c-13.73 0-24.967 11.219-24.998 24.942h103.533c-13.742 0-24.891-11.154-24.969-24.942z" fill="#98e5fb"/><path d="m324.201 328.59h-53.568c-.078 13.788-11.227 24.942-24.971 24.942h103.537c-.031-13.723-11.267-24.942-24.998-24.942z" fill="#98e5fb"/><path d="m136.664 310.5c-4.143 0-7.5-3.357-7.5-7.5v-28c0-4.143 3.357-7.5 7.5-7.5 2.051 0 3.908.824 5.262 2.158v-27.57c-3.941-3.889-6.381-9.254-6.381-15.172v-16.919c0-5.917 2.439-11.282 6.381-15.17v-74.485c-1.354 1.334-3.211 2.158-5.262 2.158-4.143 0-7.5-3.357-7.5-7.5v-28c0-4.143 3.357-7.5 7.5-7.5h5.262v-51.301c0-5.006 1.799-9.609 4.777-13.199h-15.933c-7.246 0-13.143 5.921-13.143 13.199v307.565c2.988 2.84 5.342 6.342 6.822 10.268h11.078c1.15-4.805 3.375-9.196 6.398-12.913v-22.619z" fill="#98e5fb"/><circle cx="245.663" cy="429.59" fill="#c7eefd" r="31.747"/><path d="m239 429.59c0-13.078 7.91-24.306 19.205-29.169-3.848-1.657-8.086-2.578-12.541-2.578-17.535 0-31.748 14.214-31.748 31.747 0 17.532 14.213 31.747 31.748 31.747 4.455 0 8.693-.922 12.541-2.578-11.295-4.864-19.205-16.092-19.205-29.169z" fill="#98e5fb"/><path d="m77.037 381.778c-11 0-20-9-20-20v-6.087c0-11 9-20 20-20h21.668c11 0 20 9 20 20v6.087c0 11-9 20-20 20z" fill="#bb5d4c"/><path d="m84.518 361.778v-6.087c0-10.012 7.465-18.344 17.098-19.764-.951-.146-1.92-.236-2.91-.236h-21.669c-11 0-20 9-20 20v6.087c0 11 9 20 20 20h21.668c.99 0 1.959-.089 2.91-.237-9.633-1.42-17.097-9.75-17.097-19.763z" fill="#a64b30"/><path d="m84.047 427.864c-11 0-20-9-20-20v-6.086c0-11 9-20 20-20h21.666c11 0 20 9 20 20v6.086c0 11-9 20-20 20z" fill="#bb5d4c"/><path d="m92 407.864v-6.086c0-9.928 7.338-18.202 16.854-19.726-1.023-.171-2.068-.274-3.141-.274h-21.666c-11 0-20 9-20 20v6.086c0 11 9 20 20 20h21.666c1.072 0 2.117-.104 3.141-.274-9.516-1.524-16.854-9.798-16.854-19.726z" fill="#a64b30"/><path d="m245.664 91c-42.934 0-77.738 15.773-77.738 58.049v41.3c0-42.277 34.805-58.05 77.738-58.05 42.932 0 77.734 15.773 77.734 58.05v-41.3c0-42.276-34.802-58.049-77.734-58.049z" fill="#fda613"/><path d="m199.508 140.675c3.779-31.2 29.004-45.638 61.693-48.926-5.021-.505-10.215-.749-15.537-.749-42.934 0-77.738 15.773-77.738 58.049v41.3c0-25.257 12.428-41.048 31.582-49.674z" fill="#fa8701"/><path d="m254.721 303.272h-18.113c-5.482 0-10.807-.653-15.918-1.854v27.026c0 13.855 11.182 25.088 24.973 25.088 13.793 0 24.975-11.232 24.975-25.088v-27.026c-5.111 1.2-10.435 1.854-15.917 1.854z" fill="#bb5d4c"/><path d="m246.051 328.444v-25.173h-9.443c-5.482 0-10.807-.653-15.918-1.854v27.026c0 13.855 11.182 25.088 24.973 25.088 4.631 0 8.965-1.271 12.682-3.478-7.357-4.363-12.294-12.405-12.294-21.609z" fill="#a64b30"/><g fill="#bb5d4c"><path d="m167.926 235.377v-39.355h-10.594c-7.889 0-14.287 6.257-14.287 13.976v16.919c0 7.72 6.398 13.979 14.287 13.979h10.84c-.149-1.824-.246-3.66-.246-5.519z"/><path d="m333.996 196.021h-10.598v39.355c0 1.859-.096 3.695-.244 5.518h10.842c7.889 0 14.287-6.259 14.287-13.979v-16.919c0-7.718-6.398-13.975-14.287-13.975z"/><path d="m245.664 132.299c-42.934 0-77.738 15.773-77.738 58.05v45.028c0 37.494 30.752 67.895 68.682 67.895h18.113c37.93 0 68.678-30.4 68.678-67.895v-45.028c-.001-42.278-34.803-58.05-77.735-58.05z"/></g><path d="m199 235.377v-20.249c-1.52-1.372-2.479-3.351-2.479-5.559v-15.629c0-2.23.979-4.228 2.523-5.602.959-35.623 27.32-51.786 62.156-55.29-5.022-.505-10.215-.749-15.537-.749-42.934 0-77.738 15.773-77.738 58.05v45.028c0 37.494 30.752 67.895 68.682 67.895h18.113c2.188 0 4.346-.112 6.48-.31-34.889-3.23-62.2-32.252-62.2-67.585z" fill="#a64b30"/><path d="m338.705 442.59c0 1.65-1.35 3-3 3h-26c-1.65 0-3-1.35-3-3v-26c0-1.65 1.35-3 3-3h26c1.65 0 3 1.35 3 3z" fill="#c7eefd"/><path d="m184.705 442.59c0 1.65-1.35 3-3 3h-26c-1.65 0-3-1.35-3-3v-26c0-1.65 1.35-3 3-3h26c1.65 0 3 1.35 3 3z" fill="#c7eefd"/><path d="m243.414 229.529h9.391c4.143 0 7.5-3.357 7.5-7.5s-3.357-7.5-7.5-7.5h-6.27v-14.665c0-4.143-3.357-7.5-7.5-7.5s-7.5 3.357-7.5 7.5v17.844c0 6.519 5.328 11.821 11.879 11.821z"/><path d="m204.021 186.439c-4.143 0-7.5 3.357-7.5 7.5v15.629c0 4.143 3.357 7.5 7.5 7.5s7.5-3.357 7.5-7.5v-15.629c0-4.142-3.357-7.5-7.5-7.5z"/><path d="m287.307 217.068c4.143 0 7.5-3.357 7.5-7.5v-15.629c0-4.143-3.357-7.5-7.5-7.5s-7.5 3.357-7.5 7.5v15.629c0 4.143 3.357 7.5 7.5 7.5z"/><path d="m269.885 260.003c2.93-2.93 2.93-7.678 0-10.607-2.93-2.928-7.678-2.928-10.607 0-3.602 3.603-8.406 5.585-13.535 5.585-.014 0-.029 0-.045 0-5.156-.012-10.004-2.025-13.648-5.67-2.93-2.928-7.678-2.928-10.607 0-2.928 2.93-2.928 7.678 0 10.607 6.705 6.705 15.508 10.059 24.301 10.059 8.748 0 17.49-3.324 24.141-9.974z"/><path d="m144.164 115v-20.5h20.5c4.143 0 7.5-3.357 7.5-7.5s-3.357-7.5-7.5-7.5h-28c-4.143 0-7.5 3.357-7.5 7.5v28c0 4.143 3.357 7.5 7.5 7.5s7.5-3.357 7.5-7.5z"/><path d="m354.664 122.5c4.143 0 7.5-3.357 7.5-7.5v-28c0-4.143-3.357-7.5-7.5-7.5h-28c-4.143 0-7.5 3.357-7.5 7.5s3.357 7.5 7.5 7.5h20.5v20.5c0 4.143 3.358 7.5 7.5 7.5z"/><path d="m136.664 267.5c-4.143 0-7.5 3.357-7.5 7.5v28c0 4.143 3.357 7.5 7.5 7.5h28c4.143 0 7.5-3.357 7.5-7.5s-3.357-7.5-7.5-7.5h-20.5v-20.5c0-4.143-3.357-7.5-7.5-7.5z"/><circle cx="153" cy="32.5" r="7.5"/><circle cx="176.5" cy="32.5" r="7.5"/><path d="m211 25c-4.143 0-7.5 3.357-7.5 7.5s3.357 7.5 7.5 7.5h72c4.143 0 7.5-3.357 7.5-7.5s-3.357-7.5-7.5-7.5z"/><path d="m245.664 468.837c21.641 0 39.246-17.606 39.246-39.247s-17.605-39.247-39.246-39.247c-21.643 0-39.248 17.606-39.248 39.247 0 21.64 17.605 39.247 39.248 39.247zm0-63.494c13.369 0 24.246 10.877 24.246 24.247s-10.877 24.247-24.246 24.247c-13.371 0-24.248-10.877-24.248-24.247s10.877-24.247 24.248-24.247z"/><path d="m335.705 453.09c5.789 0 10.5-4.71 10.5-10.5v-26c0-5.79-4.711-10.5-10.5-10.5h-26c-5.791 0-10.5 4.71-10.5 10.5v26c0 5.79 4.709 10.5 10.5 10.5zm-21.5-32h17v17h-17z"/><path d="m181.705 406.09h-26c-5.791 0-10.5 4.71-10.5 10.5v26c0 5.79 4.709 10.5 10.5 10.5h26c5.789 0 10.5-4.71 10.5-10.5v-26c0-5.79-4.711-10.5-10.5-10.5zm-4.5 32h-17v-17h17z"/><path d="m486.793 433.799-37.188-37.135c1.801-9.07 2.131-18.343.979-27.596-.512-4.111-4.268-7.025-8.369-6.516-4.109.512-7.027 4.259-6.516 8.369 1.029 8.259.631 16.53-1.182 24.594-.834 3.728.283 7.564 2.982 10.258l38.445 38.392-48.273 48.209-38.971-38.918v-107.956c0-1.376-.379-2.726-1.096-3.901l-23.572-38.707c-7.477-12.336-9.611-22.663-6.346-30.694 3.029-7.453 10.264-11.915 15.369-14.241 0 0 37.861 66.436 38.109 66.745 0 0 9.916 10.354 13.744 16.34 2.232 3.491 6.873 4.507 10.359 2.277 3.49-2.232 4.51-6.87 2.277-10.359-3.971-6.208-8.756-11.906-14.172-16.919l-34.671-61.041v-85.003c0-4.143-3.357-7.5-7.5-7.5s-7.5 3.357-7.5 7.5v72.304c-1.438.049-2.848.332-4.195.868-7.223 2.875-20.168 9.735-25.715 23.38-3.525 8.671-3.463 18.364.158 28.951h-17.285c-4.143 0-7.5 3.357-7.5 7.5s3.357 7.5 7.5 7.5h24.445c.035.06.068.119.103.18l21.531 35.353h-16.943c-3.422-14.282-16.297-24.942-31.6-24.942h-46.065v-13.979c26.525-8.502 46.711-31.034 51.602-58.717h4.258c12.014 0 21.787-9.635 21.787-21.479v-16.919c0-11.842-9.773-21.476-21.787-21.476h-3.098v-39.473c0-41.657-31.066-65.549-85.234-65.549-54.17 0-85.238 23.892-85.238 65.549v39.473h-3.094c-12.014 0-21.787 9.634-21.787 21.476v16.919c0 11.844 9.773 21.479 21.787 21.479h4.254c4.893 27.682 25.078 50.215 51.604 58.717v13.979h-46.063c-15.303 0-28.18 10.66-31.6 24.942h-11.078c-1.48-3.926-3.834-7.428-6.822-10.268v-307.566c0-7.278 5.896-13.199 13.143-13.199h229.787c7.248 0 13.145 5.921 13.145 13.199v105.804c0 4.143 3.357 7.5 7.5 7.5s7.5-3.357 7.5-7.5v-105.804c0-15.549-12.625-28.199-28.144-28.199h-229.787c-15.518 0-28.143 12.65-28.143 28.199v207.819h-54.215c-15.164 0-27.5 12.337-27.5 27.5v6.086c0 13.903 10.373 25.423 23.787 27.242-2.008 3.815-3.15 8.155-3.15 12.758v6.087c0 10.021 5.389 18.804 13.42 23.61-3.41 4.581-5.432 10.253-5.432 16.39v6.087c0 9.743 5.098 18.313 12.762 23.199-3.602 4.65-5.752 10.478-5.752 16.801v6.086c0 15.163 12.336 27.5 27.5 27.5h18.58v48.435c0 15.55 12.625 28.201 28.143 28.201h46.23c4.143 0 7.5-3.357 7.5-7.5s-3.357-7.5-7.5-7.5h-46.23c-7.246 0-13.143-5.922-13.143-13.201v-51.151c9.215-4.447 15.586-13.886 15.586-24.783v-6.086c0-9.743-5.098-18.311-12.76-23.198 3.6-4.65 5.752-10.479 5.752-16.802v-.746h247.496v122.767c0 7.279-5.897 13.201-13.145 13.201h-147.556c-4.143 0-7.5 3.357-7.5 7.5s3.357 7.5 7.5 7.5h147.557c15.52 0 28.145-12.651 28.145-28.201v-9.145l28.609 28.571c2.766 2.757 6.445 4.274 10.361 4.274 3.918 0 7.598-1.519 10.367-4.28l48.754-48.688c2.77-2.766 4.295-6.447 4.295-10.366 0-3.92-1.525-7.601-4.295-10.367zm-155.895-230.278h3.098c3.742 0 6.787 2.905 6.787 6.476v16.919c0 3.572-3.045 6.479-6.787 6.479h-3.098zm-170.472 29.874h-3.094c-3.742 0-6.787-2.906-6.787-6.479v-16.919c0-3.57 3.045-6.476 6.787-6.476h3.094zm-112.014 48.709c-6.893 0-12.5-5.607-12.5-12.5v-6.086c0-6.893 5.607-12.5 12.5-12.5h54.215v31.086zm8.137 33.587v-6.087c0-6.893 5.607-12.5 12.5-12.5h33.578v31.087h-33.578c-6.893 0-12.5-5.607-12.5-12.5zm7.988 46.087v-6.087c0-6.893 5.607-12.5 12.5-12.5h21.668c6.893 0 12.5 5.607 12.5 12.5v6.087c0 6.893-5.607 12.5-12.5 12.5h-21.668c-6.892 0-12.5-5.607-12.5-12.5zm53.676 46.086c0 6.893-5.607 12.5-12.5 12.5h-21.666c-6.893 0-12.5-5.607-12.5-12.5v-6.086c0-6.893 5.607-12.5 12.5-12.5h21.666c6.893 0 12.5 5.607 12.5 12.5zm76.596-297.422c11.91-7.813 29.496-11.942 50.855-11.942s38.943 4.13 50.854 11.942c12.941 8.489 19.277 20.997 19.373 38.216-14.217-15.475-38.164-23.859-70.227-23.859s-56.012 8.385-70.229 23.859c.096-17.218 6.43-29.726 19.374-38.216zm-19.383 124.935v-45.028c0-17.424 6.34-30.053 19.383-38.607 11.91-7.813 29.496-11.942 50.855-11.942s38.943 4.13 50.854 11.942c13.041 8.555 19.381 21.184 19.381 38.607v45.028c0 33.302-27.443 60.395-61.178 60.395h-18.113c-33.737 0-61.182-27.093-61.182-60.395zm-24.055 110.655c2.83-5.87 8.822-9.942 15.756-9.942h46.973c.863 3.583 2.326 6.929 4.262 9.942zm111.766-17.588c0 9.698-7.838 17.588-17.475 17.588-9.635 0-17.473-7.89-17.473-17.588v-18.143c2.766.303 5.572.471 8.418.471h18.113c2.846 0 5.65-.168 8.416-.471v18.143zm9.828 17.588c1.936-3.014 3.4-6.359 4.262-9.942h46.975c6.934 0 12.926 4.072 15.756 9.942z"/></svg>